<svg xmlns="http://www.w3.org/2000/svg" version="1.1" xmlns:xlink="http://www.w3.org/1999/xlink" xmlns:svgjs="http://svgjs.dev/svgjs" width="1000" height="1000" viewBox="0 0 1000 1000"><rect width="1000" height="1000" fill="#000000"></rect><g transform="matrix(0.7,0,0,0.7,149.57577040388594,393.1860777854345)"><svg viewBox="0 0 396 121" data-background-color="#d2d6dc" preserveAspectRatio="xMidYMid meet" height="305" width="1000" xmlns="http://www.w3.org/2000/svg" xmlns:xlink="http://www.w3.org/1999/xlink"><g id="tight-bounds" transform="matrix(1,0,0,1,0.23999274294453699,0.036227578278328565)"><svg viewBox="0 0 395.52 120.92754457109173" height="120.92754457109173" width="395.52"><g><svg viewBox="0 0 395.52 120.92754457109173" height="120.92754457109173" width="395.52"><g transform="matrix(1,0,0,1,0,86.73134382339646)"><svg viewBox="0 0 395.52 34.19620074769527" height="34.19620074769527" width="395.52"><g><svg viewBox="0 0 395.52 34.19620074769527" height="34.19620074769527" width="395.52"><g><svg viewBox="0 0 395.52 18.443796666207465" height="18.443796666207465" width="395.52"><g transform="matrix(1,0,0,1,0,0)"><svg width="395.52" viewBox="4.579999923706055 -33.77000045776367 733.9099731445312 34.22999954223633" height="18.443796666207465" data-palette-color="#636365"><path d="M16.18 0L4.58 0 4.58-33.27 13.98-33.27Q20.6-33.27 23.55-31.28 26.49-29.3 26.49-25.03L26.49-25.03Q26.49-22.04 24.84-20.13 23.18-18.23 20.05-17.64L20.05-17.64 20.05-17.42Q27.63-16.13 27.63-9.45L27.63-9.45Q27.63-5.01 24.61-2.5 21.59 0 16.18 0L16.18 0ZM14.13-29.9L8.44-29.9 8.44-19.01 14.81-19.01Q18.91-19.01 20.7-20.3 22.5-21.59 22.5-24.51 22.5-27.43 20.51-28.67 18.53-29.9 14.13-29.9L14.13-29.9ZM8.44-3.29L15.37-3.29Q23.48-3.29 23.48-9.63L23.48-9.63Q23.48-12.82 21.41-14.28 19.34-15.75 15.07-15.75L15.07-15.75 8.44-15.75 8.44-3.29ZM37-4.02Q33.01-8.54 33.01-16.7 33.01-24.85 37.02-29.31 41.02-33.77 48.29-33.77 55.56-33.77 59.59-29.23 63.62-24.7 63.62-16.7 63.62-8.7 59.58-4.12 55.53 0.46 48.27 0.46 41 0.46 37-4.02L37-4.02ZM56.72-26.87Q53.92-30.33 48.39-30.33 42.87-30.33 39.99-26.85 37.11-23.36 37.11-16.65 37.11-9.93 39.99-6.43 42.87-2.93 48.38-2.93 53.89-2.93 56.71-6.41 59.53-9.88 59.53-16.65 59.53-23.41 56.72-26.87ZM90.41-29.83L79.87-29.83 79.87 0 76.01 0 76.01-29.83 65.47-29.83 65.47-33.27 90.41-33.27 90.41-29.83ZM114.17-8.85L114.17-8.85Q114.17-4.45 111-2 107.83 0.46 102.13 0.46 96.43 0.46 93.24-1.06L93.24-1.06 93.24-4.8Q97.74-2.93 102.5-2.93L102.5-2.93Q106.31-2.93 108.3-4.37 110.28-5.81 110.28-8.49L110.28-8.49Q110.28-10.21 109.59-11.3 108.89-12.39 107.25-13.35 105.6-14.31 102.32-15.47L102.32-15.47Q97.69-17.11 95.68-19.39 93.67-21.66 93.67-25.43 93.67-29.2 96.55-31.47L96.55-31.47Q99.49-33.75 104.33-33.75 109.17-33.75 113.34-31.93L113.34-31.93 112.13-28.54Q108.01-30.28 104.14-30.28L104.14-30.28Q101.05-30.28 99.32-28.96 97.59-27.63 97.59-25.3L97.59-25.3Q97.59-23.53 98.21-22.47 98.83-21.41 100.37-20.42L100.37-20.42Q101.96-19.46 105.02-18.4L105.02-18.4Q110.28-16.53 112.2-14.38L112.2-14.38Q114.17-12.26 114.17-8.85ZM154.82-33.27L158.91-33.27 150.02 0 146.2 0 139.5-22.27Q139.12-23.43 138.41-26.01L138.41-26.01Q137.86-28.24 137.81-28.72L137.81-28.72Q137.3-25.68 136.21-22.14L136.21-22.14 129.72 0 125.87 0 117.03-33.27 121.12-33.27 126.38-12.71Q127.49-8.37 127.97-4.88L127.97-4.88Q128.58-9.07 129.79-13.04L129.79-13.04 135.76-33.27 139.85-33.27 146.1-12.84Q147.26-9.15 147.94-4.88L147.94-4.88Q148.35-8.01 149.59-12.77L149.59-12.77 154.82-33.27ZM170.97-24.37L167.05-14.05 177.79-14.05 173.93-24.37Q173.14-26.49 172.38-29.17L172.38-29.17Q171.93-27.1 170.97-24.37L170.97-24.37ZM174.08-33.39L187.15 0 183.15 0 179.01-10.57 165.69-10.57 161.59 0 157.67 0 170.82-33.39 174.08-33.39ZM214.09-14.18L214.09-33.27 217.7-33.27 217.7 0 213.28 0 195.11-27.91 194.93-27.91Q195.28-22.83 195.28-18.91L195.28-18.91 195.28 0 191.72 0 191.72-33.27 196.09-33.27 214.22-5.46 214.39-5.46Q214.01-12.01 214.09-14.18L214.09-14.18ZM235.57-24.37L231.66-14.05 242.4-14.05 238.53-24.37Q237.75-26.49 236.99-29.17L236.99-29.17Q236.53-27.1 235.57-24.37L235.57-24.37ZM238.68-33.39L251.75 0 247.76 0 243.61-10.57 230.29-10.57 226.2 0 222.28 0 235.42-33.39 238.68-33.39ZM281.37 0L269.77 0 269.77-33.27 279.17-33.27Q285.8-33.27 288.74-31.28 291.69-29.3 291.69-25.03L291.69-25.03Q291.69-22.04 290.03-20.13 288.37-18.23 285.24-17.64L285.24-17.64 285.24-17.42Q292.82-16.13 292.82-9.45L292.82-9.45Q292.82-5.01 289.8-2.5 286.78 0 281.37 0L281.37 0ZM279.33-29.9L273.64-29.9 273.64-19.01 280.01-19.01Q284.1-19.01 285.9-20.3 287.69-21.59 287.69-24.51 287.69-27.43 285.71-28.67 283.72-29.9 279.33-29.9L279.33-29.9ZM273.64-3.29L280.56-3.29Q288.68-3.29 288.68-9.63L288.68-9.63Q288.68-12.82 286.61-14.28 284.53-15.75 280.26-15.75L280.26-15.75 273.64-15.75 273.64-3.29ZM321.18-11.6L321.18-33.27 325.05-33.27 325.05-11.73Q325.05-6.04 321.61-2.79 318.18 0.46 312.18 0.46 306.19 0.46 302.88-2.81L302.88-2.81Q299.6-6.09 299.6-11.83L299.6-11.83 299.6-33.27 303.46-33.27 303.46-11.55Q303.46-7.36 305.75-5.14 308.04-2.93 312.34-2.93 316.63-2.93 318.91-5.18 321.18-7.43 321.18-11.6L321.18-11.6ZM352.63-8.85L352.63-8.85Q352.63-4.45 349.45-2 346.28 0.46 340.58 0.46 334.88 0.46 331.7-1.06L331.7-1.06 331.7-4.8Q336.2-2.93 340.95-2.93L340.95-2.93Q344.77-2.93 346.75-4.37 348.73-5.81 348.73-8.49L348.73-8.49Q348.73-10.21 348.04-11.3 347.34-12.39 345.7-13.35 344.06-14.31 340.77-15.47L340.77-15.47Q336.15-17.11 334.14-19.39 332.13-21.66 332.13-25.43 332.13-29.2 335.01-31.47L335.01-31.47Q337.94-33.75 342.78-33.75 347.62-33.75 351.79-31.93L351.79-31.93 350.58-28.54Q346.46-30.28 342.59-30.28L342.59-30.28Q339.51-30.28 337.78-28.96 336.04-27.63 336.04-25.3L336.04-25.3Q336.04-23.53 336.66-22.47 337.28-21.41 338.82-20.42L338.82-20.42Q340.42-19.46 343.48-18.4L343.48-18.4Q348.73-16.53 350.66-14.38L350.66-14.38Q352.63-12.26 352.63-8.85ZM378.21-8.85L378.21-8.85Q378.21-4.45 375.03-2 371.86 0.46 366.16 0.46 360.46 0.46 357.28-1.06L357.28-1.06 357.28-4.8Q361.77-2.93 366.53-2.93L366.53-2.93Q370.34-2.93 372.33-4.37 374.31-5.81 374.31-8.49L374.31-8.49Q374.31-10.21 373.62-11.3 372.92-12.39 371.28-13.35 369.64-14.31 366.35-15.47L366.35-15.47Q361.72-17.11 359.71-19.39 357.71-21.66 357.71-25.43 357.71-29.2 360.59-31.47L360.59-31.47Q363.52-33.75 368.36-33.75 373.2-33.75 377.37-31.93L377.37-31.93 376.16-28.54Q372.04-30.28 368.17-30.28L368.17-30.28Q365.09-30.28 363.35-28.96 361.62-27.63 361.62-25.3L361.62-25.3Q361.62-23.53 362.24-22.47 362.86-21.41 364.4-20.42L364.4-20.42Q366-19.46 369.05-18.4L369.05-18.4Q374.31-16.53 376.23-14.38L376.23-14.38Q378.21-12.26 378.21-8.85ZM388.9-33.27L388.9 0 385.03 0 385.03-33.27 388.9-33.27ZM420.39-14.18L420.39-33.27 424-33.27 424 0 419.58 0 401.41-27.91 401.23-27.91Q401.58-22.83 401.58-18.91L401.58-18.91 401.58 0 398.02 0 398.02-33.27 402.39-33.27 420.52-5.46 420.69-5.46Q420.31-12.01 420.39-14.18L420.39-14.18ZM437.02-3.46L451.68-3.46 451.68 0 433.15 0 433.15-33.27 451.68-33.27 451.68-29.83 437.02-29.83 437.02-19.11 450.8-19.11 450.8-15.7 437.02-15.7 437.02-3.46ZM477.82-8.85L477.82-8.85Q477.82-4.45 474.64-2 471.47 0.46 465.77 0.46 460.07 0.46 456.89-1.06L456.89-1.06 456.89-4.8Q461.39-2.93 466.14-2.93L466.14-2.93Q469.95-2.93 471.94-4.37 473.92-5.81 473.92-8.49L473.92-8.49Q473.92-10.21 473.23-11.3 472.53-12.39 470.89-13.35 469.25-14.31 465.96-15.47L465.96-15.47Q461.34-17.11 459.33-19.39 457.32-21.66 457.32-25.43 457.32-29.2 460.2-31.47L460.2-31.47Q463.13-33.75 467.97-33.75 472.81-33.75 476.98-31.93L476.98-31.93 475.77-28.54Q471.65-30.28 467.78-30.28L467.78-30.28Q464.7-30.28 462.97-28.96 461.23-27.63 461.23-25.3L461.23-25.3Q461.23-23.53 461.85-22.47 462.47-21.41 464.01-20.42L464.01-20.42Q465.61-19.46 468.67-18.4L468.67-18.4Q473.92-16.53 475.84-14.38L475.84-14.38Q477.82-12.26 477.82-8.85ZM503.4-8.85L503.4-8.85Q503.4-4.45 500.22-2 497.05 0.46 491.35 0.46 485.65 0.46 482.47-1.06L482.47-1.06 482.47-4.8Q486.96-2.93 491.72-2.93L491.72-2.93Q495.53-2.93 497.52-4.37 499.5-5.81 499.5-8.49L499.5-8.49Q499.5-10.21 498.81-11.3 498.11-12.39 496.47-13.35 494.83-14.31 491.54-15.47L491.54-15.47Q486.91-17.11 484.9-19.39 482.89-21.66 482.89-25.43 482.89-29.2 485.78-31.47L485.78-31.47Q488.71-33.75 493.55-33.75 498.39-33.75 502.56-31.93L502.56-31.93 501.35-28.54Q497.23-30.28 493.36-30.28L493.36-30.28Q490.28-30.28 488.54-28.96 486.81-27.63 486.81-25.3L486.81-25.3Q486.81-23.53 487.43-22.47 488.05-21.41 489.59-20.42L489.59-20.42Q491.19-19.46 494.24-18.4L494.24-18.4Q499.5-16.53 501.42-14.38L501.42-14.38Q503.4-12.26 503.4-8.85ZM537.89-30.28L537.89-30.28Q532.41-30.28 529.24-26.62 526.06-22.95 526.06-16.52 526.06-10.09 529.12-6.53 532.18-2.98 537.84-2.98L537.84-2.98Q541.38-2.98 545.81-4.22L545.81-4.22 545.81-0.83Q542.34 0.46 537.26 0.46L537.26 0.46Q529.91 0.46 525.91-3.99L525.91-3.99Q521.92-8.49 521.92-16.68L521.92-16.68Q521.89-20.48 523.02-23.67 524.14-26.87 526.22-29.1 528.29-31.32 531.3-32.55 534.31-33.77 537.95-33.75L537.95-33.75Q543.23-33.75 547.1-31.83L547.1-31.83 545.45-28.51Q541.74-30.28 537.89-30.28ZM574.44-33.27L578.31-33.27 578.31 0 574.44 0 574.44-15.65 556.93-15.65 556.93 0 553.06 0 553.06-33.27 556.93-33.27 556.93-19.11 574.44-19.11 574.44-33.27ZM596.16-24.37L592.24-14.05 602.98-14.05 599.11-24.37Q598.33-26.49 597.57-29.17L597.57-29.17Q597.12-27.1 596.16-24.37L596.16-24.37ZM599.26-33.39L612.33 0 608.34 0 604.19-10.57 590.87-10.57 586.78 0 582.86 0 596-33.39 599.26-33.39ZM620.47-21.16L620.47-21.16 620.47 0 616.91 0 616.91-33.27 622.72-33.27 633.26-5.81 633.44-5.81 644.06-33.27 649.84-33.27 649.84 0 645.98 0 645.98-21.44Q645.98-25.28 646.3-29.45L646.3-29.45 646.1-29.45 634.73 0 631.62 0 620.34-29.47 620.17-29.47Q620.47-25.99 620.47-21.16ZM670.57 0L658.97 0 658.97-33.27 668.37-33.27Q674.99-33.27 677.94-31.28 680.88-29.3 680.88-25.03L680.88-25.03Q680.88-22.04 679.23-20.13 677.57-18.23 674.44-17.64L674.44-17.64 674.44-17.42Q682.02-16.13 682.02-9.45L682.02-9.45Q682.02-5.01 679-2.5 675.98 0 670.57 0L670.57 0ZM668.52-29.9L662.83-29.9 662.83-19.01 669.2-19.01Q673.3-19.01 675.09-20.3 676.89-21.59 676.89-24.51 676.89-27.43 674.9-28.67 672.92-29.9 668.52-29.9L668.52-29.9ZM662.83-3.29L669.76-3.29Q677.87-3.29 677.87-9.63L677.87-9.63Q677.87-12.82 675.8-14.28 673.73-15.75 669.46-15.75L669.46-15.75 662.83-15.75 662.83-3.29ZM693.01-3.46L707.68-3.46 707.68 0 689.15 0 689.15-33.27 707.68-33.27 707.68-29.83 693.01-29.83 693.01-19.11 706.79-19.11 706.79-15.7 693.01-15.7 693.01-3.46ZM723.95-29.88L718.92-29.88 718.92-17.16 724.23-17.16Q728.3-17.16 730.22-18.77 732.14-20.37 732.14-23.66 732.14-26.95 730.2-28.41 728.25-29.88 723.95-29.88L723.95-29.88ZM725.85-13.83L718.92-13.83 718.92 0 715.05 0 715.05-33.27 724.18-33.27Q730.27-33.27 733.2-30.93 736.14-28.59 736.14-23.86L736.14-23.86Q736.14-17.24 729.46-14.94L729.46-14.94 738.49 0 733.91 0 725.85-13.83Z" opacity="1" transform="matrix(1,0,0,1,0,0)" fill="#ffffff" class="undefined-text-0" data-fill-palette-color="primary" id="text-0"></path></svg></g></svg></g><g transform="matrix(1,0,0,1,152.50611562853467,22.79793440797906)"><svg viewBox="0 0 90.50776874293064 11.398266339716214" height="11.398266339716214" width="90.50776874293064"><g transform="matrix(1,0,0,1,0,0)"><svg width="90.50776874293064" viewBox="2.6500000953674316 -31.3799991607666 253.48001098632812 31.92999839782715" height="11.398266339716214" data-palette-color="#89939e"><path d="M15.7 0.55L15.7 0.55Q11.63 0.55 8.7-1.56 5.78-3.68 4.21-7.34 2.65-11 2.65-15.7L2.65-15.7Q2.65-20.8 4.39-24.29 6.13-27.78 9.09-29.58 12.05-31.38 15.7-31.38L15.7-31.38Q20.43-31.38 23.41-28.98 26.4-26.58 27.68-22.75L27.68-22.75 24.53-22.05Q23.48-25.18 21.11-26.99 18.75-28.8 15.7-28.8L15.7-28.8Q13.08-28.8 10.81-27.31 8.55-25.83 7.16-22.9 5.78-19.98 5.78-15.7L5.78-15.7Q5.78-11.88 6.84-8.79 7.9-5.7 10.1-3.89 12.3-2.08 15.7-2.08L15.7-2.08Q19.7-2.08 22.11-4.23 24.53-6.38 24.53-9.95L24.53-9.95 27.75-9.95Q27.75-6.7 26.2-4.35 24.65-2 21.93-0.73 19.2 0.55 15.7 0.55ZM45.85 0.55L45.85 0.55Q42.15 0.55 39.2-1.2 36.25-2.95 34.52-6.49 32.8-10.03 32.8-15.35L32.8-15.35Q32.8-20.75 34.52-24.31 36.25-27.88 39.2-29.63 42.15-31.38 45.85-31.38L45.85-31.38Q49.52-31.38 52.47-29.61 55.42-27.85 57.15-24.29 58.87-20.73 58.87-15.35L58.87-15.35Q58.87-9.98 57.15-6.45 55.42-2.93 52.47-1.19 49.52 0.55 45.85 0.55ZM45.85-2.18L45.85-2.18Q50.5-2.18 53.17-5.51 55.85-8.85 55.85-15.4L55.85-15.4Q55.85-21.85 53.17-25.31 50.5-28.78 45.85-28.78L45.85-28.78Q41.22-28.78 38.52-25.3 35.82-21.83 35.82-15.35L35.82-15.35Q35.82-8.83 38.52-5.5 41.22-2.18 45.85-2.18ZM66.75 0L66.75-30.88 70.92-30.88 82.55-8.25 82.2-8.25 93.82-30.88 97.92-30.88 97.92 0 94.97 0 94.97-28.2 95.57-28.2 83.37-4.15 81.4-4.15 69.25-28.03 69.65-28.03 69.65 0 66.75 0ZM108.42 0L108.42-30.88 112.59-30.88 124.22-8.25 123.87-8.25 135.49-30.88 139.59-30.88 139.59 0 136.64 0 136.64-28.2 137.24-28.2 125.04-4.15 123.07-4.15 110.92-28.03 111.32-28.03 111.32 0 108.42 0ZM168.64 0L150.04 0 150.04-30.88 168.64-30.88 168.64-28.4 152.94-28.4 152.94-16.85 167.74-16.85 167.74-14.38 152.94-14.38 152.94-2.53 168.64-2.53 168.64 0ZM180.49 0L177.59 0 177.59-30.88 188.01-30.88Q193.16-30.88 195.75-28.39 198.34-25.9 198.34-21.9L198.34-21.9Q198.34-17.93 195.75-15.44 193.16-12.95 188.01-12.95L188.01-12.95 180.49-12.95 180.49 0ZM198.94 0L195.21 0 186.01-13.78 189.24-13.78 198.94 0ZM180.49-28.4L180.49-15.1 187.86-15.1Q191.54-15.1 193.45-16.96 195.36-18.82 195.36-21.8L195.36-21.8Q195.36-24.85 193.48-26.63 191.59-28.4 188.01-28.4L188.01-28.4 180.49-28.4ZM217.89 0.55L217.89 0.55Q213.81 0.55 210.89-1.56 207.96-3.68 206.4-7.34 204.84-11 204.84-15.7L204.84-15.7Q204.84-20.8 206.57-24.29 208.31-27.78 211.27-29.58 214.24-31.38 217.89-31.38L217.89-31.38Q222.61-31.38 225.6-28.98 228.59-26.58 229.86-22.75L229.86-22.75 226.71-22.05Q225.66-25.18 223.3-26.99 220.94-28.8 217.89-28.8L217.89-28.8Q215.26-28.8 213-27.31 210.74-25.83 209.35-22.9 207.96-19.98 207.96-15.7L207.96-15.7Q207.96-11.88 209.02-8.79 210.09-5.7 212.29-3.89 214.49-2.08 217.89-2.08L217.89-2.08Q221.89-2.08 224.3-4.23 226.71-6.38 226.71-9.95L226.71-9.95 229.94-9.95Q229.94-6.7 228.39-4.35 226.84-2 224.11-0.73 221.39 0.55 217.89 0.55ZM256.13 0L237.53 0 237.53-30.88 256.13-30.88 256.13-28.4 240.43-28.4 240.43-16.85 255.23-16.85 255.23-14.38 240.43-14.38 240.43-2.53 256.13-2.53 256.13 0Z" opacity="1" transform="matrix(1,0,0,1,0,0)" fill="#ffffff" class="undefined-text-1" data-fill-palette-color="secondary" id="text-1"></path></svg></g></svg></g></svg></g></svg></g><g transform="matrix(1,0,0,1,158.74846583007337,0)"><svg viewBox="0 0 78.02306833985327 78.02306833985327" height="78.02306833985327" width="78.02306833985327"><g><svg></svg></g><g id="icon-0"><svg viewBox="0 0 78.02306833985327 78.02306833985327" height="78.02306833985327" width="78.02306833985327"><g><path d="M0 39.012c0-21.545 17.466-39.012 39.012-39.012 21.545 0 39.012 17.466 39.011 39.012 0 21.545-17.466 39.012-39.011 39.011-21.545 0-39.012-17.466-39.012-39.011zM39.012 76.36c20.627 0 37.348-16.721 37.348-37.348 0-20.627-16.721-37.348-37.348-37.349-20.627 0-37.348 16.721-37.349 37.349 0 20.627 16.721 37.348 37.349 37.348z" data-fill-palette-color="accent" fill="#ffffff" stroke="transparent"></path></g><g transform="matrix(1,0,0,1,17.121519061629332,21.244284426962416)"><svg viewBox="0 0 43.780030216594604 35.534499485928436" height="35.534499485928436" width="43.780030216594604"><g><svg version="1.1" xmlns="http://www.w3.org/2000/svg" xmlns:xlink="http://www.w3.org/1999/xlink" x="0" y="0" viewBox="0 0 100 81.16600036621094" enable-background="new 0 0 100 81.166" xml:space="preserve" width="43.780030216594604" height="35.534499485928436" class="icon-a-0" data-fill-palette-color="accent" id="a-0"><path d="M87.043 0H50 12.957L0 23.557l50 57.609 50-57.609L87.043 0zM83.635 6.345l7.59 13.801h-13.64L83.635 6.345zM77.168 6.043l-5.537 12.636L57.792 6.043H77.168zM64.273 20.146H50 35.727L50 7.113 64.273 20.146zM42.208 6.043L28.37 18.679 22.832 6.043H42.208zM16.365 6.345l6.05 13.801H8.775L16.365 6.345zM10.288 26.189h14.776l15.078 34.399L10.288 26.189zM31.663 26.189H50h18.338L50 68.022 31.663 26.189zM59.857 60.589l15.078-34.399h14.777L59.857 60.589z" fill="#ffffff" data-fill-palette-color="accent"></path></svg></g></svg></g></svg></g></svg></g><g></g></svg></g><defs></defs></svg><rect width="395.52" height="120.92754457109173" fill="none" stroke="none" visibility="hidden"></rect></g></svg></g></svg>